<svg width="600" height="600" viewBox="0 0 600 600" fill="none" xmlns="http://www.w3.org/2000/svg">
<g clip-path="url(#clip0_1_2)">
<rect width="600" height="600" fill="white"/>
<rect width="600" height="600" fill="#181818"/>
<path d="M140.032 346V256.4H153.728L209.92 325.392H203.136V256.4H219.648V346H205.952L149.76 277.008H156.544V346H140.032ZM259.017 293.648H303.561V307.344H259.017V293.648ZM260.297 332.048H310.857V346H243.657V256.4H309.065V270.352H260.297V332.048ZM317.527 346L355.287 294.032V306.576L319.319 256.4H338.135L364.887 293.52L357.207 293.648L383.703 256.4H401.751L366.039 305.68V293.648L404.055 346H384.855L356.695 306.576H364.247L336.471 346H317.527ZM431.458 346V270.48H401.762V256.4H477.794V270.48H448.098V346H431.458Z" fill="white"/>
</g>
<defs>
<clipPath id="clip0_1_2">
<rect width="600" height="600" fill="white"/>
</clipPath>
</defs>
</svg>
