<svg width="255" height="68" viewBox="0 0 255 68" fill="none" xmlns="http://www.w3.org/2000/svg">
<path d="M209.698 42.0565C201.553 46.5411 195.336 50.0085 189.336 53.2681C187.192 54.4931 185.053 55.505 183.114 56.9486C180.319 58.797 176.464 60.8316 178.472 64.9365C180.485 68.8281 184.541 67.2254 187.525 66.2352C190.714 65.4636 193.925 63.8392 196.92 62.4226C210.815 56.1653 224.716 49.6948 238.406 43.2189C242.045 41.3922 245.89 39.784 249.123 37.3068C256.012 32.3633 255.72 27.2358 248.428 23.2088C238.634 17.8377 228.618 12.8876 218.602 7.93749C214.433 5.69727 210.053 3.45165 205.657 1.84562C203.145 0.927879 200.183 1.06528 197.443 0.781723C196.446 6.72957 199.791 8.09537 202.71 9.66352C209.997 13.9037 217.501 17.9361 224.788 22.1763C227.283 23.7336 229.99 25.2963 232.437 28.7724C228.625 29.1014 225.019 29.6489 221.212 29.7647C192.666 30.5264 164.331 31.2935 135.785 32.0552C94.3408 33.1263 53.108 34.2028 11.6586 35.4872C8.27443 35.6138 4.8629 36.8064 0.823342 37.7695C4.47686 43.6232 8.94424 42.4577 12.5396 42.3365C32.8228 42.4297 53.3282 42.1019 73.6169 41.9819C117.367 41.61 161.118 41.238 204.868 40.866C205.919 41.1062 206.547 41.3357 209.698 42.0565Z" fill="white"/>
</svg>
